<svg id="Layer_1" xmlns="http://www.w3.org/2000/svg" viewBox="0 0 360 140"><style>.st0{fill:#fc0}.st1{fill:#363636}</style><path class="st0" d="M88 53.4c-1.6.8-2.2 2.3-2.2 6.2 0 0 .8-.8 2-1.2.9-.3 1.6-.8 2.1-1.1 1.4-1 1.6-2.3 1.6-4.4-.1-.1-2.3-.1-3.5.5z"/><path class="st1" d="M78.5 54.3c-1.3 1.1-1.7 3-1.7 3L72.5 74l-3.6-13.7c-.3-1.5-1-3.3-2-4.5-1.3-1.5-3.9-1.6-4.1-1.6-.3 0-2.9.1-4.1 1.6-1 1.2-1.6 3-2 4.5L53.1 74l-4.3-16.7s-.4-1.8-1.7-3c-2.1-1.9-5.3-1.5-5.3-1.5L50.1 84s2.7.2 4.1-.5c1.8-.9 2.6-1.6 3.7-5.9 1-3.8 3.7-14.9 3.9-15.7.1-.4.3-1.3 1-1.3s.8.9 1 1.3c.2.8 3 11.9 3.9 15.7 1.1 4.3 1.9 5 3.7 5.9 1.4.7 4.1.5 4.1.5l8.3-31.2c0 .1-3.2-.3-5.3 1.5zM91.4 58s-.5.8-1.7 1.5c-.8.4-1.5.7-2.3 1.1-1.3.6-1.7 1.3-1.7 2.4v21.2s2.1.3 3.4-.4c1.8-.9 2.2-1.8 2.2-5.6V58zM112 68.6L122.5 53s-4.4-.8-6.6 1.2c-1.4 1.3-3 3.6-3 3.6l-3.9 5.6c-.2.3-.4.6-.8.6s-.6-.3-.8-.6l-3.9-5.6s-1.6-2.3-3-3.6c-2.2-2-6.6-1.2-6.6-1.2l10.5 15.6L94 84.1s4.6.6 6.8-1.4c1.4-1.3 2.8-3.4 2.8-3.4l3.9-5.6c.2-.3.4-.6.8-.6s.6.3.8.6l3.9 5.6s1.4 2.1 2.8 3.4c2.2 2 6.7 1.4 6.7 1.4L112 68.6z"/><g><path class="st1" d="M145.8 61.7c-.1-1.3-.3-2.5-.9-3.5-.5-1-1.2-1.8-2.1-2.5-.9-.7-1.9-1.2-3.1-1.5-1.2-.3-2.5-.5-4-.5-.9 0-1.8.1-2.8.3-1 .2-2 .6-2.8 1.1-.9.5-1.6 1.2-2.1 2.1-.6.9-.8 1.9-.8 3.2 0 1.3.3 2.3.9 3.1.6.8 1.4 1.4 2.4 1.9s2.1.9 3.4 1.2c1.3.3 2.6.6 3.9.8 1.3.3 2.7.6 3.9.9 1.3.4 2.4.9 3.4 1.5s1.8 1.4 2.4 2.4c.6 1 .9 2.3.9 3.8 0 1.6-.4 3-1.1 4.1-.7 1.1-1.6 2-2.7 2.7-1.1.7-2.3 1.2-3.6 1.5-1.3.3-2.6.5-3.8.5-1.8 0-3.6-.2-5.2-.6-1.6-.4-3-1-4.2-1.9-1.2-.9-2.1-2-2.8-3.5s-1-3.1-1-5.1h1.9c-.1 1.7.2 3.2.7 4.4.6 1.2 1.4 2.2 2.4 2.9 1.1.8 2.3 1.3 3.7 1.7 1.4.3 2.9.5 4.4.5.9 0 1.9-.1 3-.4 1.1-.2 2.1-.6 2.9-1.2.9-.6 1.6-1.3 2.2-2.2.6-.9.9-2.1.9-3.4 0-1.3-.3-2.4-.9-3.2s-1.4-1.5-2.4-2-2.2-.9-3.4-1.2-2.6-.6-3.9-.9l-3.9-.9c-1.3-.3-2.4-.8-3.4-1.4-1-.6-1.8-1.4-2.4-2.3-.6-1-.9-2.2-.9-3.7s.3-2.8.9-3.9c.6-1.1 1.5-1.9 2.5-2.6s2.1-1.1 3.4-1.5c1.3-.3 2.5-.5 3.7-.5 1.6 0 3.2.2 4.6.6 1.4.4 2.7.9 3.7 1.7 1.1.8 1.9 1.8 2.6 3 .6 1.2 1 2.7 1.1 4.4h-1.6zM161 63h-5v15.8c0 .9.1 1.6.3 2.2.2.5.5.9.9 1.2.4.3.9.4 1.5.5.6.1 1.3.1 2.1.1v1.5c-.9.1-1.7.1-2.5 0s-1.5-.3-2.1-.7c-.6-.4-1.1-.9-1.5-1.7-.4-.7-.5-1.7-.5-3V63H150v-1.5h4.2v-7h1.7v7h4.9V63zM161.3 61.5h2l8.4 20.6 7.7-20.6h1.9l-9.7 25c-.5 1.1-.9 2.1-1.3 2.9-.4.8-.8 1.4-1.3 1.8-.6.5-1.3.8-2.1.9-.8.1-1.9.2-3.2.2v-1.5c1.2 0 2.1-.1 2.8-.3.7-.2 1.3-.6 1.9-1.2.3-.3.7-.9 1-1.8.4-.9.8-2 1.3-3.5l-9.4-22.5zM185.7 52.7v31.4H184V52.7h1.7zM191.6 73.1c0 1.3.1 2.6.5 3.8.3 1.2.9 2.3 1.6 3.3.7.9 1.6 1.7 2.6 2.2 1 .6 2.3.8 3.7.8 2.1 0 3.9-.6 5.3-1.8 1.4-1.2 2.3-2.8 2.8-5h1.7c-.4 2.7-1.5 4.7-3.2 6.1-1.7 1.4-3.9 2.1-6.6 2.1-1.6 0-3.1-.3-4.4-.9-1.3-.6-2.3-1.4-3.1-2.5-.8-1-1.5-2.3-1.9-3.7-.4-1.4-.6-2.9-.6-4.4 0-1.6.2-3.1.5-4.5.4-1.5 1-2.8 1.8-3.9s1.9-2.1 3.1-2.8c1.3-.7 2.7-1 4.4-1 1.8 0 3.3.3 4.6 1 1.3.6 2.3 1.5 3.2 2.6s1.4 2.4 1.8 3.9c.4 1.5.5 3 .4 4.6h-18.2zm16.6-1.5c0-1.2-.2-2.3-.6-3.4-.4-1.1-.9-2.1-1.6-2.9-.7-.8-1.6-1.5-2.6-2s-2.2-.8-3.5-.8c-1.3 0-2.4.3-3.4.8s-1.8 1.2-2.5 2.1c-.7.9-1.3 1.8-1.7 2.9s-.7 2.2-.7 3.3h16.6zM214.1 52.7h13.1c1.4 0 2.7.1 3.9.4 1.2.3 2.3.7 3.2 1.4.9.6 1.6 1.5 2.1 2.5s.8 2.3.8 3.8c0 2.1-.6 3.9-1.8 5.3-1.2 1.5-2.8 2.4-5 2.7v.2c1.2.1 2.1.4 2.9.8.7.4 1.3.9 1.8 1.5s.8 1.3 1 2c.2.7.4 1.5.4 2.4.1.8.1 1.6.1 2.5v2.4c0 .7.1 1.4.2 2.1s.3 1.2.7 1.6h-2.2c-.3-.5-.5-1.1-.6-1.8s-.1-1.4-.2-2.2 0-1.6 0-2.4c0-.8 0-1.6-.1-2.4-.1-.8-.3-1.5-.5-2.1-.3-.7-.7-1.2-1.2-1.7s-1.3-.9-2.2-1.2c-.9-.3-2.1-.4-3.4-.4h-11.2v14.3H214V52.7zm13.1 15.5c1.1 0 2.2-.1 3.2-.4 1-.3 1.8-.7 2.5-1.3.7-.6 1.3-1.3 1.7-2.2.4-.9.6-2 .6-3.3 0-1.2-.2-2.2-.7-3-.4-.8-1-1.5-1.8-2-.7-.5-1.6-.9-2.6-1.1-1-.2-2-.4-3-.4h-11.2v13.8h11.3zM242.2 73.1c0 1.3.1 2.6.5 3.8.3 1.2.9 2.3 1.6 3.3.7.9 1.6 1.7 2.6 2.2 1 .6 2.3.8 3.7.8 2.1 0 3.9-.6 5.3-1.8 1.4-1.2 2.3-2.8 2.8-5h1.7c-.4 2.7-1.5 4.7-3.2 6.1-1.7 1.4-3.9 2.1-6.6 2.1-1.6 0-3.1-.3-4.4-.9-1.3-.6-2.3-1.4-3.1-2.5-.8-1-1.5-2.3-1.9-3.7-.4-1.4-.6-2.9-.6-4.4 0-1.6.2-3.1.5-4.5.4-1.5 1-2.8 1.8-3.9s1.9-2.1 3.1-2.8c1.3-.7 2.7-1 4.4-1 1.8 0 3.3.3 4.6 1 1.3.6 2.3 1.5 3.2 2.6s1.4 2.4 1.8 3.9c.4 1.5.5 3 .4 4.6h-18.2zm16.6-1.5c0-1.2-.2-2.3-.6-3.4-.4-1.1-.9-2.1-1.6-2.9-.7-.8-1.6-1.5-2.6-2s-2.2-.8-3.5-.8c-1.3 0-2.4.3-3.4.8s-1.8 1.2-2.5 2.1c-.7.9-1.3 1.8-1.7 2.9s-.7 2.2-.7 3.3h16.6zM281.1 79.9v1c0 .3.1.6.2.9.1.3.2.5.4.6.2.2.5.2.9.2.3 0 .7 0 1.2-.1V84c-.2.1-.5.1-.7.1h-.7c-.7 0-1.2-.1-1.6-.3-.4-.2-.7-.4-.9-.7-.2-.3-.3-.6-.4-1s-.1-.8-.1-1.3v-1.2h-.1c-.3.7-.6 1.3-1.1 1.9-.5.6-1.1 1.1-1.8 1.6s-1.5.8-2.4 1.1c-.9.3-1.9.4-3 .4s-2-.1-3-.3c-.9-.2-1.7-.6-2.4-1.1-.7-.5-1.2-1.2-1.6-2-.4-.8-.6-1.8-.6-3 0-1.3.3-2.4.8-3.2.5-.8 1.2-1.5 2-2s1.7-.8 2.7-1c1-.2 1.9-.4 2.9-.4 1.9-.1 3.3-.3 4.4-.4 1-.2 1.8-.4 2.3-.7.5-.3.8-.8.9-1.3.1-.5.2-1.3.2-2.2 0-.3-.1-.6-.3-1.1-.2-.5-.5-1-.9-1.5-.5-.5-1.1-.9-1.9-1.3-.8-.4-1.9-.5-3.2-.5-2 0-3.7.5-4.9 1.5-1.2 1-1.9 2.5-2 4.5h-1.7c.1-2.5.9-4.4 2.4-5.6 1.5-1.2 3.6-1.9 6.2-1.9 1 0 2 .1 2.9.3.9.2 1.8.5 2.5.9s1.3 1 1.8 1.8.7 1.7.7 2.9v12.9zm-1.7-8.6c-.3.4-.8.7-1.4.9-.6.2-1.3.3-2 .4-.7.1-1.5.2-2.4.2-.8.1-1.6.1-2.5.3-2 .2-3.5.7-4.6 1.5-1.1.8-1.6 2-1.6 3.7 0 1.4.5 2.5 1.5 3.5s2.5 1.4 4.5 1.4c1.9 0 3.4-.3 4.5-1s2-1.5 2.6-2.4c.6-.9 1-1.8 1.1-2.6.2-.8.2-1.4.2-1.7v-4.2zM303.4 68.5c-.1-1-.3-1.9-.8-2.6-.4-.8-1-1.4-1.7-1.9s-1.5-.9-2.4-1.1-1.9-.4-2.9-.4c-1.4 0-2.7.3-3.7.9-1.1.6-2 1.3-2.7 2.3-.7 1-1.3 2-1.7 3.3-.4 1.2-.6 2.5-.6 3.8 0 1.5.2 2.9.5 4.2.4 1.3.9 2.4 1.6 3.4.7 1 1.6 1.7 2.7 2.2 1.1.5 2.4.8 3.8.8 1.1 0 2-.2 2.9-.5s1.7-.8 2.4-1.5c.7-.6 1.3-1.4 1.7-2.2.4-.9.7-1.8.9-2.8h1.7c-.2 1.3-.5 2.6-1.1 3.6s-1.3 1.9-2.1 2.7c-.8.7-1.8 1.3-2.9 1.7-1.1.4-2.2.6-3.5.6-1.8 0-3.4-.3-4.7-1-1.3-.7-2.4-1.5-3.2-2.7-.8-1.1-1.5-2.4-1.8-3.9-.4-1.5-.6-3-.6-4.6 0-1.6.2-3.1.7-4.5.5-1.4 1.1-2.6 2-3.7s2-1.9 3.3-2.5c1.3-.6 2.8-.9 4.4-.9 1.2 0 2.4.2 3.5.5s2 .8 2.9 1.4 1.5 1.4 2 2.3c.5.9.9 2.1 1 3.3h-1.6zM317.5 63h-4.9v15.8c0 .9.1 1.6.3 2.2.2.5.5.9.9 1.2.4.3.9.4 1.5.5.6.1 1.3.1 2.1.1v1.5c-.9.1-1.7.1-2.5 0s-1.5-.3-2.1-.7c-.6-.4-1.1-.9-1.5-1.7-.4-.7-.5-1.7-.5-3V63h-4.2v-1.5h4.2v-7h1.7v7h4.9V63z"/></g></svg>